<?xml version="1.0" encoding="utf-8"?>
<!-- Generator: Adobe Illustrator 27.0.0, SVG Export Plug-In . SVG Version: 6.00 Build 0)  -->
<svg version="1.1" id="Layer_1" xmlns="http://www.w3.org/2000/svg" xmlns:xlink="http://www.w3.org/1999/xlink" x="0px" y="0px"
	 viewBox="0 0 140 25" style="enable-background:new 0 0 140 25;" xml:space="preserve">
<style type="text/css">
	.st0{display:none;fill:#202636;}
	.st1{display:none;fill:#375EC1;}
	.st2{fill:#5E9463;}
	.st3{font-family:'Stardom-Regular';}
	.st4{font-size:21.1847px;}
</style>
<path class="st0" d="M20.9,25v-4.9h-15v-4.9h14.5v-4.8H5.8V5.7h15V0.9H0.4V25H20.9z M28.7,25V0.9h-5.4V25H28.7z M36.9,5.1V0.9h-5.4
	v4.2H36.9z M36.9,25V7h-5.4v18H36.9z M44.7,25l4.6-6h0.3l4.8,6H61l-7.2-8.9v-0.3L61,7h-6.5L49.8,13h-0.3L44.7,7h-6.6l7.2,8.9v0.3
	L38.2,25H44.7z M67.7,5.1V0.9h-5.4v4.2H67.7z M67.7,25V7h-5.4v18H67.7z M75.9,25V14.6c0-2.3,0.9-3.4,3.3-3.4c2.2,0,3,0.9,3,2.8v1.9
	h5.4v-3c0-3.5-1.7-6.3-5.7-6.3c-3.6,0-5.5,2.2-6,5.1h-0.3V7h-5v18H75.9z"/>
<path class="st1" d="M96.1,25v-6.3h-6.9V25H96.1z"/>
<text transform="matrix(1 0 0 1 1.001 19.1807)" class="st2 st3 st4">ASPEN VALLEY LAW</text>
</svg>
